<?xml version="1.0" standalone="no"?>
<!DOCTYPE svg PUBLIC "-//W3C//DTD SVG 20010904//EN"
 "http://www.w3.org/TR/2001/REC-SVG-20010904/DTD/svg10.dtd">
<svg version="1.0" xmlns="http://www.w3.org/2000/svg"
 width="256.000000pt" height="256.000000pt" viewBox="0 0 256.000000 256.000000"
 preserveAspectRatio="xMidYMid meet">
<metadata>
Created by potrace 1.11, written by Peter Selinger 2001-2013
</metadata>
<g transform="translate(0.000000,256.000000) scale(0.100000,-0.100000)"
fill="#000000" stroke="none">
<path d="M1120 2544 c-116 -24 -223 -91 -375 -235 -33 -31 -79 -73 -102 -92
-87 -72 -175 -169 -240 -262 -72 -106 -251 -425 -238 -425 3 0 -1 -10 -9 -22
-21 -33 -87 -255 -90 -303 -1 -22 -5 -46 -10 -53 -4 -6 -3 -12 3 -12 9 0 23
27 102 198 32 69 191 344 196 339 1 -2 -13 -50 -31 -108 -56 -169 -89 -300
-102 -398 -2 -18 -7 -38 -10 -43 -8 -13 -14 -236 -7 -270 6 -29 23 -39 23 -13
0 8 8 23 18 33 16 16 32 44 36 62 1 3 7 14 14 25 11 17 12 13 8 -30 -3 -27 -7
-61 -10 -75 -3 -14 -9 -41 -12 -60 -3 -19 -19 -98 -36 -175 -16 -77 -31 -151
-33 -165 -7 -52 -19 -115 -31 -170 -7 -31 -6 -177 2 -210 6 -27 12 -52 14 -60
1 -3 5 4 10 15 7 18 8 18 15 -7 l7 -28 964 0 964 0 -5 37 c-11 81 -19 192 -19
278 0 88 11 246 18 253 2 2 12 -9 21 -25 17 -29 86 -87 119 -99 21 -8 21 -12
-7 79 -16 51 -15 53 22 33 14 -8 31 -12 38 -9 14 5 18 33 6 33 -5 0 -8 12 -9
28 -1 15 -5 54 -10 87 -5 33 -8 73 -6 89 l4 28 26 -25 c33 -30 100 -67 124
-67 9 0 20 5 24 12 4 7 3 8 -4 4 -7 -4 -12 -2 -12 4 0 6 -9 20 -19 31 -39 42
-81 139 -105 239 -21 87 -25 130 -25 269 -2 328 -22 456 -113 691 -85 219
-152 331 -235 390 -51 37 -128 66 -199 76 -27 3 -58 8 -69 11 -11 2 -50 6 -86
7 -76 4 -91 11 -137 60 -36 38 -65 45 -98 22 -15 -11 -30 -12 -69 -4 -101 20
-161 23 -215 12z"/>
</g>
</svg>
